<?xml version="1.0" standalone="no"?><svg xmlns="http://www.w3.org/2000/svg" viewBox="0 0 1440 320"><path fill="#2c2e30" fill-opacity="1" d="M0,128L18.5,160C36.9,192,74,256,111,256C147.7,256,185,192,222,176C258.5,160,295,192,332,197.3C369.2,203,406,181,443,165.3C480,149,517,139,554,149.3C590.8,160,628,192,665,224C701.5,256,738,288,775,288C812.3,288,849,256,886,218.7C923.1,181,960,139,997,149.3C1033.8,160,1071,224,1108,245.3C1144.6,267,1182,245,1218,245.3C1255.4,245,1292,267,1329,256C1366.2,245,1403,203,1422,181.3L1440,160L1440,0L1421.5,0C1403.1,0,1366,0,1329,0C1292.3,0,1255,0,1218,0C1181.5,0,1145,0,1108,0C1070.8,0,1034,0,997,0C960,0,923,0,886,0C849.2,0,812,0,775,0C738.5,0,702,0,665,0C627.7,0,591,0,554,0C516.9,0,480,0,443,0C406.2,0,369,0,332,0C295.4,0,258,0,222,0C184.6,0,148,0,111,0C73.8,0,37,0,18,0L0,0Z"></path></svg>